<svg width="18" height="18" viewBox="0 0 18 18" fill="none" xmlns="http://www.w3.org/2000/svg">
<path d="M9.00031 17.0624C8.55031 17.0624 8.10781 16.9574 7.74781 16.7549L4.20031 14.7074C2.73031 13.7174 2.63281 13.5374 2.63281 11.9849V8.26492C2.63281 6.71242 2.73031 6.53242 4.17031 5.56492L7.75531 3.49492C8.46781 3.08242 9.54031 3.08242 10.2528 3.49492L13.8003 5.54242C15.2703 6.53242 15.3678 6.71242 15.3678 8.26492V11.9849C15.3678 13.5374 15.2703 13.7174 13.8303 14.6849L10.2453 16.7549C9.89281 16.9649 9.44281 17.0624 9.00031 17.0624ZM9.00031 4.31242C8.74531 4.31242 8.49031 4.36492 8.31031 4.46992L4.76281 6.51742C3.75781 7.19992 3.75781 7.19992 3.75781 8.26492V11.9849C3.75781 13.0499 3.75781 13.0499 4.80031 13.7549L8.31781 15.7799C8.67781 15.9899 9.33031 15.9899 9.69031 15.7799L13.2378 13.7324C14.2428 13.0499 14.2428 13.0499 14.2428 11.9849V8.26492C14.2428 7.19992 14.2428 7.19992 13.2003 6.49492L9.68281 4.46992C9.51031 4.36492 9.25531 4.31242 9.00031 4.31242Z" fill="#815259"/>
<path d="M13.125 6.285C12.8175 6.285 12.5625 6.03 12.5625 5.7225V3.75C12.5625 2.565 12.06 2.0625 10.875 2.0625H7.125C5.94 2.0625 5.4375 2.565 5.4375 3.75V5.67C5.4375 5.9775 5.1825 6.2325 4.875 6.2325C4.5675 6.2325 4.3125 5.985 4.3125 5.67V3.75C4.3125 1.935 5.31 0.9375 7.125 0.9375H10.875C12.69 0.9375 13.6875 1.935 13.6875 3.75V5.7225C13.6875 6.03 13.4325 6.285 13.125 6.285Z" fill="#815259"/>
<path d="M10.2232 13.2223C10.0657 13.2223 9.90067 13.1923 9.73567 13.1248L9.00067 12.8398L8.26567 13.1323C7.86817 13.2898 7.46317 13.2523 7.16317 13.0348C6.86317 12.8173 6.70567 12.4423 6.72817 12.0148L6.77317 11.2273L6.27067 10.6198C6.00067 10.2823 5.91067 9.89234 6.03067 9.53234C6.14317 9.17984 6.45067 8.90984 6.86317 8.80484L7.62817 8.60984L8.05567 7.94234C8.51317 7.22234 9.49567 7.22234 9.95317 7.94234L10.3807 8.60984L11.1457 8.80484C11.5582 8.90984 11.8657 9.17984 11.9782 9.53234C12.0907 9.88484 12.0007 10.2823 11.7307 10.6123L11.2282 11.2198L11.2732 12.0073C11.2957 12.4348 11.1382 12.8023 10.8382 13.0273C10.6582 13.1548 10.4482 13.2223 10.2232 13.2223ZM7.14067 9.89984L7.64317 10.5073C7.81567 10.7098 7.91317 11.0323 7.89817 11.2948L7.85317 12.0823L8.58817 11.7898C8.83567 11.6923 9.16567 11.6923 9.41317 11.7898L10.1482 12.0823L10.1032 11.2948C10.0882 11.0323 10.1857 10.7173 10.3582 10.5073L10.8607 9.89984L10.0957 9.70484C9.84067 9.63734 9.57067 9.44234 9.42817 9.22484L9.00817 8.56484L8.58067 9.22484C8.43817 9.44984 8.16817 9.64484 7.91317 9.71234L7.14067 9.89984Z" fill="#815259"/>
</svg>
