<svg width="20" height="20" viewBox="0 0 20 20" fill="none" xmlns="http://www.w3.org/2000/svg">
<path d="M6.66602 4.7915C6.32435 4.7915 6.04102 4.50817 6.04102 4.1665V1.6665C6.04102 1.32484 6.32435 1.0415 6.66602 1.0415C7.00768 1.0415 7.29102 1.32484 7.29102 1.6665V4.1665C7.29102 4.50817 7.00768 4.7915 6.66602 4.7915Z" fill="#D32D44"/>
<path d="M13.334 4.7915C12.9923 4.7915 12.709 4.50817 12.709 4.1665V1.6665C12.709 1.32484 12.9923 1.0415 13.334 1.0415C13.6757 1.0415 13.959 1.32484 13.959 1.6665V4.1665C13.959 4.50817 13.6757 4.7915 13.334 4.7915Z" fill="#D32D44"/>
<path d="M12.5007 11.4585H5.83398C5.49232 11.4585 5.20898 11.1752 5.20898 10.8335C5.20898 10.4918 5.49232 10.2085 5.83398 10.2085H12.5007C12.8423 10.2085 13.1257 10.4918 13.1257 10.8335C13.1257 11.1752 12.8423 11.4585 12.5007 11.4585Z" fill="#D32D44"/>
<path d="M10.0007 14.7915H5.83398C5.49232 14.7915 5.20898 14.5082 5.20898 14.1665C5.20898 13.8248 5.49232 13.5415 5.83398 13.5415H10.0007C10.3423 13.5415 10.6257 13.8248 10.6257 14.1665C10.6257 14.5082 10.3423 14.7915 10.0007 14.7915Z" fill="#D32D44"/>
<path d="M12.5 18.9582H7.5C2.81667 18.9582 1.875 16.7498 1.875 13.1832V8.0415C1.875 4.0915 3.20833 2.48317 6.63333 2.2915H13.3333C13.3417 2.2915 13.3583 2.2915 13.3667 2.2915C16.7917 2.48317 18.125 4.0915 18.125 8.0415V13.1832C18.125 16.7498 17.1833 18.9582 12.5 18.9582ZM6.66667 3.5415C4.33333 3.67484 3.125 4.40817 3.125 8.0415V13.1832C3.125 16.3748 3.73333 17.7082 7.5 17.7082H12.5C16.2667 17.7082 16.875 16.3748 16.875 13.1832V8.0415C16.875 4.4165 15.675 3.67484 13.3167 3.5415H6.66667Z" fill="#D32D44"/>
</svg>
