<svg width="18" height="18" viewBox="0 0 18 18" fill="none" xmlns="http://www.w3.org/2000/svg">
<path d="M9.78749 14.565C9.38249 14.565 8.95499 14.5275 8.48999 14.4525L4.97249 13.8975C3.86249 13.725 3.00749 13.4175 2.36999 12.9675C0.72749 11.8275 0.82499 9.87001 1.03499 8.49751L1.58999 4.98001C2.09999 1.75501 3.76499 0.547508 6.98999 1.05001L10.5075 1.60501C12.165 1.86751 14.3925 2.53501 14.535 5.33251C14.565 5.81251 14.535 6.36001 14.43 7.00501L13.8825 10.5225C13.4475 13.275 12.165 14.565 9.78749 14.565ZM5.64749 2.06251C3.86249 2.06251 3.05249 2.97001 2.69999 5.16001L2.14499 8.67751C1.79999 10.89 2.42999 11.64 3.01499 12.0525C3.50999 12.405 4.20749 12.645 5.14499 12.7875L8.66249 13.3425C11.28 13.755 12.36 12.9675 12.7725 10.3425L13.32 6.82501C13.41 6.26251 13.44 5.79001 13.41 5.39251V5.38501C13.3275 3.81001 12.435 3.03751 10.3275 2.70751L6.81749 2.16001C6.38249 2.09251 5.99999 2.06251 5.64749 2.06251Z" fill="#815259"/>
<path d="M11.01 17.0625C10.3725 17.0625 9.65251 16.9275 8.82001 16.65L5.43751 15.525C3.51001 14.8875 2.46751 13.9725 2.15251 12.6375C2.10001 12.4125 2.19001 12.1725 2.38501 12.045C2.58001 11.9175 2.83501 11.9175 3.02251 12.0525C3.51751 12.405 4.20751 12.645 5.14501 12.7875L8.66251 13.3425C11.28 13.755 12.36 12.9675 12.7725 10.3425L13.32 6.82499C13.41 6.26249 13.44 5.78999 13.41 5.39249C13.4025 5.19749 13.5 5.00249 13.6725 4.88999C13.845 4.77749 14.0625 4.76999 14.2425 4.86749C16.2525 5.93999 16.785 7.65749 15.915 10.2825L14.79 13.665C14.2575 15.255 13.56 16.23 12.585 16.7175C12.1125 16.95 11.595 17.0625 11.01 17.0625ZM4.29751 13.77C4.65751 14.01 5.13751 14.2425 5.79001 14.46L9.17251 15.585C10.4625 16.0125 11.385 16.05 12.075 15.7125C12.765 15.3675 13.29 14.6025 13.7175 13.3125L14.8425 9.92999C15.4575 8.06999 15.2175 7.07999 14.505 6.41249C14.49 6.59999 14.46 6.79499 14.43 7.00499L13.8825 10.5225C13.3725 13.7475 11.7075 14.955 8.48251 14.46L4.96501 13.905C4.73251 13.86 4.50751 13.815 4.29751 13.77Z" fill="#815259"/>
<path d="M6.18 7.28999C5.1525 7.28999 4.3125 6.44999 4.3125 5.42249C4.3125 4.39499 5.1525 3.55499 6.18 3.55499C7.2075 3.55499 8.0475 4.39499 8.0475 5.42249C8.0475 6.44999 7.2075 7.28999 6.18 7.28999ZM6.18 4.68749C5.775 4.68749 5.4375 5.01749 5.4375 5.42999C5.4375 5.84249 5.7675 6.17249 6.18 6.17249C6.585 6.17249 6.9225 5.84249 6.9225 5.42999C6.9225 5.01749 6.585 4.68749 6.18 4.68749Z" fill="#815259"/>
</svg>
