<svg width="36" height="29" viewBox="0 0 36 29" fill="none" xmlns="http://www.w3.org/2000/svg">
<path fill-rule="evenodd" clip-rule="evenodd" d="M23.7921 11.0059C25.6041 12.8179 25.6645 15.7183 23.9733 17.6029L23.7921 17.7941L18.8488 22.4485C18.3802 22.9172 17.6204 22.9172 17.1517 22.4485C16.7191 22.0159 16.6859 21.3353 17.0519 20.8645L17.1517 20.7515L22.0951 16.0971C22.983 15.2091 23.0297 13.7985 22.2353 12.8556L22.0951 12.7029L17.1517 8.04853C16.6831 7.5799 16.6831 6.8201 17.1517 6.35147C17.5843 5.91889 18.265 5.88562 18.7357 6.25165L18.8488 6.35147L23.7921 11.0059Z" fill="#D32D44"/>
<path fill-rule="evenodd" clip-rule="evenodd" d="M16.5919 11.0059C18.4039 12.8179 18.4643 15.7183 16.7731 17.6029L16.5919 17.7941L11.6486 22.4485C11.18 22.9172 10.4202 22.9172 9.95153 22.4485C9.51895 22.0159 9.48567 21.3353 9.8517 20.8645L9.95153 20.7515L14.8949 16.0971C15.7828 15.2091 15.8295 13.7985 15.0351 12.8556L14.8949 12.7029L9.95153 8.04853C9.4829 7.5799 9.4829 6.8201 9.95153 6.35147C10.3841 5.91889 11.0648 5.88562 11.5355 6.25165L11.6486 6.35147L16.5919 11.0059Z" fill="#D32D44"/>
</svg>
