<svg width="25" height="20" viewBox="0 0 25 20" fill="none" xmlns="http://www.w3.org/2000/svg">
<path fill-rule="evenodd" clip-rule="evenodd" d="M16.5221 7.64306C17.7805 8.90141 17.8224 10.9156 16.648 12.2243L16.5221 12.3571L13.0893 15.5893C12.7638 15.9148 12.2362 15.9148 11.9107 15.5893C11.6103 15.2889 11.5872 14.8162 11.8414 14.4893L11.9107 14.4108L15.3436 11.1786C15.9602 10.562 15.9927 9.58241 15.441 8.92758L15.3436 8.82157L11.9107 5.58934C11.5853 5.2639 11.5853 4.73626 11.9107 4.41083C12.2111 4.11042 12.6838 4.08731 13.0107 4.3415L13.0893 4.41083L16.5221 7.64306Z" fill="#D32D44"/>
<path fill-rule="evenodd" clip-rule="evenodd" d="M11.5221 7.64306C12.7805 8.90141 12.8224 10.9156 11.648 12.2243L11.5221 12.3571L8.08925 15.5893C7.76381 15.9148 7.23618 15.9148 6.91074 15.5893C6.61034 15.2889 6.58723 14.8162 6.84142 14.4893L6.91074 14.4108L10.3436 11.1786C10.9602 10.562 10.9927 9.58241 10.441 8.92758L10.3436 8.82157L6.91074 5.58934C6.5853 5.2639 6.5853 4.73626 6.91074 4.41083C7.21114 4.11042 7.68384 4.08731 8.01074 4.3415L8.08925 4.41083L11.5221 7.64306Z" fill="#D32D44"/>
</svg>
