<svg width="89" height="88" viewBox="0 0 89 88" fill="none" xmlns="http://www.w3.org/2000/svg">
<path d="M79.9194 38.2801L76.326 53.6068C73.246 66.8434 67.1594 72.1968 55.7194 71.0968C53.886 70.9501 51.906 70.6201 49.7794 70.1068L43.6194 68.6401C28.3294 65.0101 23.5994 57.4568 27.1927 42.1301L30.786 26.7668C31.5194 23.6501 32.3994 20.9368 33.4994 18.7001C37.7894 9.82678 45.086 7.44344 57.3327 10.3401L63.456 11.7701C78.8194 15.3634 83.5127 22.9534 79.9194 38.2801Z" stroke="#D32D44" stroke-width="1.5" stroke-linecap="round" stroke-linejoin="round"/>
<path d="M55.7193 71.0966C53.446 72.6366 50.586 73.9199 47.1026 75.0566L41.3093 76.9633C26.7526 81.6566 19.0893 77.7333 14.3593 63.1766L9.66596 48.6933C4.97263 34.1366 8.8593 26.4366 23.416 21.7433L29.2093 19.8366C30.7126 19.36 32.1426 18.9566 33.4993 18.7C32.3993 20.9366 31.5193 23.65 30.786 26.7666L27.1926 42.13C23.5993 57.4566 28.3293 65.0099 43.6193 68.6399L49.7793 70.1066C51.906 70.62 53.886 70.9499 55.7193 71.0966Z" stroke="#D32D44" stroke-width="1.5" stroke-linecap="round" stroke-linejoin="round"/>
</svg>
