<svg width="20" height="20" viewBox="0 0 20 20" fill="none" xmlns="http://www.w3.org/2000/svg">
<path d="M14.9998 6.59148C14.9748 6.59148 14.9581 6.59148 14.9331 6.59148H14.8915C13.3165 6.54148 12.1415 5.32481 12.1415 3.82481C12.1415 2.29147 13.3915 1.0498 14.9165 1.0498C16.4415 1.0498 17.6915 2.29981 17.6915 3.82481C17.6831 5.33314 16.5081 6.54981 15.0081 6.59981C15.0081 6.59147 15.0081 6.59148 14.9998 6.59148ZM14.9165 2.29148C14.0748 2.29148 13.3915 2.97481 13.3915 3.81648C13.3915 4.64148 14.0331 5.30815 14.8581 5.34148C14.8665 5.33315 14.9331 5.33315 15.0081 5.34148C15.8165 5.29981 16.4415 4.63314 16.4498 3.81648C16.4498 2.97481 15.7665 2.29148 14.9165 2.29148Z" fill="#0F0204"/>
<path d="M15.0084 12.7334C14.6834 12.7334 14.3584 12.7084 14.0334 12.65C13.6917 12.5917 13.4667 12.2667 13.525 11.925C13.5834 11.5834 13.9084 11.3584 14.25 11.4167C15.275 11.5917 16.3584 11.4 17.0834 10.9167C17.475 10.6584 17.6834 10.3334 17.6834 10.0084C17.6834 9.68337 17.4667 9.3667 17.0834 9.10837C16.3584 8.62504 15.2584 8.43337 14.225 8.61671C13.8834 8.68337 13.5584 8.45004 13.5 8.10837C13.4417 7.76671 13.6667 7.44171 14.0084 7.38338C15.3667 7.14171 16.775 7.40004 17.775 8.0667C18.5084 8.55837 18.9334 9.25837 18.9334 10.0084C18.9334 10.75 18.5167 11.4584 17.775 11.9584C17.0167 12.4584 16.0334 12.7334 15.0084 12.7334Z" fill="#0F0204"/>
<path d="M4.97503 6.59151C4.96669 6.59151 4.95836 6.59151 4.95836 6.59151C3.45836 6.54151 2.28336 5.32483 2.27502 3.82483C2.27502 2.2915 3.52503 1.0415 5.05003 1.0415C6.57503 1.0415 7.82502 2.29151 7.82502 3.81651C7.82502 5.32484 6.65002 6.54151 5.15002 6.59151L4.97503 5.96651L5.03336 6.59151C5.01669 6.59151 4.99169 6.59151 4.97503 6.59151ZM5.05836 5.34151C5.10836 5.34151 5.15003 5.3415 5.20003 5.34984C5.94169 5.3165 6.59169 4.64983 6.59169 3.82483C6.59169 2.98317 5.90836 2.29983 5.06669 2.29983C4.22503 2.29983 3.54169 2.98317 3.54169 3.82483C3.54169 4.6415 4.17502 5.29984 4.98336 5.34984C4.99169 5.3415 5.02502 5.34151 5.05836 5.34151Z" fill="#0F0204"/>
<path d="M4.96663 12.7334C3.94163 12.7334 2.95829 12.4584 2.19996 11.9584C1.46663 11.4667 1.04163 10.7584 1.04163 10.0084C1.04163 9.26671 1.46663 8.55837 2.19996 8.0667C3.19996 7.40004 4.60829 7.14171 5.96663 7.38338C6.30829 7.44171 6.53329 7.76671 6.47496 8.10837C6.41663 8.45004 6.09163 8.68337 5.74996 8.61671C4.71663 8.43337 3.62496 8.62504 2.89163 9.10837C2.49996 9.3667 2.29163 9.68337 2.29163 10.0084C2.29163 10.3334 2.50829 10.6584 2.89163 10.9167C3.61663 11.4 4.69996 11.5917 5.72496 11.4167C6.06663 11.3584 6.39163 11.5917 6.44996 11.925C6.50829 12.2667 6.28329 12.5917 5.94163 12.65C5.61663 12.7084 5.29163 12.7334 4.96663 12.7334Z" fill="#0F0204"/>
<path d="M9.99981 12.8166C9.97481 12.8166 9.95814 12.8166 9.93314 12.8166H9.89148C8.31648 12.7666 7.14148 11.5499 7.14148 10.0499C7.14148 8.51657 8.39148 7.2749 9.91648 7.2749C11.4415 7.2749 12.6915 8.5249 12.6915 10.0499C12.6831 11.5582 11.5081 12.7749 10.0081 12.8249C10.0081 12.8166 10.0081 12.8166 9.99981 12.8166ZM9.91648 8.51657C9.07481 8.51657 8.39148 9.19991 8.39148 10.0416C8.39148 10.8666 9.03315 11.5332 9.85815 11.5666C9.86648 11.5582 9.93315 11.5582 10.0081 11.5666C10.8165 11.5249 11.4415 10.8582 11.4498 10.0416C11.4498 9.20824 10.7665 8.51657 9.91648 8.51657Z" fill="#0F0204"/>
<path d="M9.99986 18.9666C8.99986 18.9666 7.99986 18.7083 7.22486 18.1833C6.49153 17.6916 6.06653 16.9916 6.06653 16.2416C6.06653 15.4999 6.48319 14.7833 7.22486 14.2916C8.78319 13.2583 11.2249 13.2583 12.7749 14.2916C13.5082 14.7833 13.9332 15.4833 13.9332 16.2333C13.9332 16.9749 13.5165 17.6916 12.7749 18.1833C11.9999 18.6999 10.9999 18.9666 9.99986 18.9666ZM7.91653 15.3416C7.52486 15.5999 7.31653 15.9249 7.31653 16.2499C7.31653 16.5749 7.5332 16.8916 7.91653 17.1499C9.04153 17.9083 10.9499 17.9083 12.0749 17.1499C12.4665 16.8916 12.6749 16.5666 12.6749 16.2416C12.6749 15.9166 12.4582 15.5999 12.0749 15.3416C10.9582 14.5833 9.04986 14.5916 7.91653 15.3416Z" fill="#0F0204"/>
</svg>
