<svg width="84" height="84" viewBox="0 0 84 84" fill="none" xmlns="http://www.w3.org/2000/svg">
<circle cx="42" cy="42" r="42" fill="#D32D44" fill-opacity="0.1"/>
<path opacity="0.8" d="M56.1673 36.0643V44.6918L53.8582 42.7085C52.7532 41.7593 50.9682 41.7593 49.8632 42.7085L43.9698 47.766C42.8648 48.7152 41.0798 48.7152 39.9748 47.766L39.4932 47.3693C38.4873 46.491 36.8865 46.406 35.7532 47.171L28.7832 51.846L28.6273 51.9593C28.1032 50.826 27.834 49.4802 27.834 47.936V36.0643C27.834 30.9077 30.9082 27.8335 36.0648 27.8335H47.9365C53.0932 27.8335 56.1673 30.9077 56.1673 36.0643Z" fill="#D32D44"/>
<path d="M37.7506 39.7048C39.6127 39.7048 41.1222 38.1952 41.1222 36.3331C41.1222 34.471 39.6127 32.9614 37.7506 32.9614C35.8885 32.9614 34.3789 34.471 34.3789 36.3331C34.3789 38.1952 35.8885 39.7048 37.7506 39.7048Z" fill="white"/>
<path d="M56.167 44.6918V47.936C56.167 53.0926 53.0928 56.1668 47.9361 56.1668H36.0645C32.452 56.1668 29.8453 54.651 28.627 51.9593L28.7828 51.846L35.7528 47.171C36.8861 46.406 38.487 46.491 39.4928 47.3693L39.9745 47.766C41.0795 48.7151 42.8645 48.7151 43.9695 47.766L49.8628 42.7085C50.9678 41.7593 52.7528 41.7593 53.8578 42.7085L56.167 44.6918Z" fill="white"/>
</svg>
