<svg width="48" height="48" viewBox="0 0 48 48" fill="none" xmlns="http://www.w3.org/2000/svg">
<circle cx="24" cy="24" r="24" fill="white" fill-opacity="0.7"/>
<path d="M19.87 33.28C19.08 33.28 18.33 33.09 17.67 32.71C16.11 31.81 15.25 29.98 15.25 27.57V20.44C15.25 18.02 16.11 16.2 17.67 15.3C19.23 14.4 21.24 14.57 23.34 15.78L29.51 19.34C31.6 20.55 32.76 22.21 32.76 24.01C32.76 25.81 31.61 27.47 29.51 28.68L23.34 32.24C22.13 32.93 20.95 33.28 19.87 33.28ZM19.87 16.22C19.33 16.22 18.85 16.34 18.42 16.59C17.34 17.21 16.75 18.58 16.75 20.44V27.56C16.75 29.42 17.34 30.78 18.42 31.41C19.5 32.04 20.98 31.86 22.59 30.93L28.76 27.37C30.37 26.44 31.26 25.25 31.26 24C31.26 22.75 30.37 21.56 28.76 20.63L22.59 17.07C21.61 16.51 20.69 16.22 19.87 16.22Z" fill="#DB3A07"/>
</svg>
