<svg width="25" height="20" viewBox="0 0 25 20" fill="none" xmlns="http://www.w3.org/2000/svg">
<path fill-rule="evenodd" clip-rule="evenodd" d="M8.47787 7.64306C7.21951 8.90141 7.17757 10.9156 8.35203 12.2243L8.47787 12.3571L11.9107 15.5893C12.2362 15.9148 12.7638 15.9148 13.0892 15.5893C13.3896 15.2889 13.4128 14.8162 13.1586 14.4893L13.0892 14.4108L9.65638 11.1786C9.03976 10.562 9.00731 9.58241 9.55902 8.92758L9.65638 8.82157L13.0892 5.58934C13.4147 5.2639 13.4147 4.73626 13.0892 4.41083C12.7888 4.11042 12.3161 4.08731 11.9892 4.3415L11.9107 4.41083L8.47787 7.64306Z" fill="#D32D44"/>
<path fill-rule="evenodd" clip-rule="evenodd" d="M13.4779 7.64306C12.2195 8.90141 12.1776 10.9156 13.352 12.2243L13.4779 12.3571L16.9107 15.5893C17.2362 15.9148 17.7638 15.9148 18.0892 15.5893C18.3896 15.2889 18.4128 14.8162 18.1586 14.4893L18.0892 14.4108L14.6564 11.1786C14.0398 10.562 14.0073 9.58241 14.559 8.92758L14.6564 8.82157L18.0892 5.58934C18.4147 5.2639 18.4147 4.73626 18.0892 4.41083C17.7888 4.11042 17.3161 4.08731 16.9892 4.3415L16.9107 4.41083L13.4779 7.64306Z" fill="#D32D44"/>
</svg>
