<svg width="40" height="40" viewBox="0 0 40 40" fill="none" xmlns="http://www.w3.org/2000/svg">
<path d="M20 27.9166C19.3334 27.9166 18.6667 27.8666 18.0334 27.7499C14.5 27.2332 11.2834 25.1999 9.25004 22.1832C7.83337 20.0499 7.08337 17.5666 7.08337 14.9999C7.08337 7.88325 12.8834 2.08325 20 2.08325C27.1167 2.08325 32.9167 7.88325 32.9167 14.9999C32.9167 17.5666 32.1667 20.0499 30.75 22.1832C28.7 25.2166 25.4834 27.2333 21.9167 27.7666C21.3334 27.8666 20.6667 27.9166 20 27.9166ZM20 4.58325C14.25 4.58325 9.58337 9.24992 9.58337 14.9999C9.58337 17.0833 10.1834 19.0833 11.3167 20.7833C12.9667 23.2166 15.55 24.8499 18.4167 25.2666C19.4834 25.4499 20.5334 25.4499 21.5167 25.2666C24.4334 24.8499 27.0167 23.1999 28.6667 20.7666C29.8 19.0666 30.4 17.0666 30.4 14.9832C30.4167 9.2499 25.75 4.58325 20 4.58325Z" fill="#0F0204"/>
<path d="M10.7831 37.65C10.5497 37.65 10.3331 37.6167 10.0997 37.5667C9.0164 37.3167 8.18307 36.4833 7.93307 35.4L7.34974 32.95C7.3164 32.8 7.19974 32.6833 7.03307 32.6333L4.28307 31.9834C3.24974 31.7334 2.43307 30.9667 2.14974 29.95C1.8664 28.9334 2.14974 27.8334 2.89974 27.0834L9.39974 20.5834C9.6664 20.3167 10.0331 20.1834 10.3997 20.2167C10.7664 20.25 11.0997 20.45 11.3164 20.7667C12.9664 23.2 15.5497 24.85 18.4331 25.2667C19.4997 25.45 20.5497 25.45 21.5331 25.2667C24.4497 24.85 27.0331 23.2 28.6831 20.7667C28.8831 20.45 29.2331 20.25 29.5997 20.2167C29.9664 20.1834 30.3331 20.3167 30.5997 20.5834L37.0997 27.0834C37.8497 27.8334 38.1331 28.9334 37.8497 29.95C37.5664 30.9667 36.7331 31.75 35.7164 31.9834L32.9664 32.6333C32.8164 32.6667 32.6997 32.7833 32.6497 32.95L32.0664 35.4C31.8164 36.4833 30.9831 37.3167 29.8997 37.5667C28.8164 37.8334 27.6997 37.45 26.9997 36.6L19.9997 28.55L12.9997 36.6167C12.4331 37.2834 11.6331 37.65 10.7831 37.65ZM10.1497 23.3834L4.6664 28.8667C4.5164 29.0167 4.53307 29.1834 4.5664 29.2834C4.58307 29.3667 4.6664 29.5333 4.8664 29.5667L7.6164 30.2167C8.69974 30.4667 9.53307 31.3 9.78307 32.3833L10.3664 34.8334C10.4164 35.05 10.5831 35.1167 10.6831 35.15C10.7831 35.1667 10.9497 35.1834 11.0997 35.0167L17.4831 27.6667C14.6497 27.1167 12.0497 25.6 10.1497 23.3834ZM22.5164 27.65L28.8997 34.9833C29.0497 35.1667 29.2331 35.1667 29.3331 35.1333C29.4331 35.1167 29.5831 35.0334 29.6497 34.8167L30.2331 32.3667C30.4831 31.2834 31.3164 30.45 32.3997 30.2L35.1497 29.55C35.3497 29.5 35.4331 29.35 35.4497 29.2667C35.4831 29.1834 35.4997 29 35.3497 28.85L29.8664 23.3667C27.9497 25.5833 25.3664 27.1 22.5164 27.65Z" fill="#0F0204"/>
<path d="M23.1502 21.4833C22.7169 21.4833 22.2002 21.3666 21.5835 20.9999L20.0002 20.0499L18.4169 20.9832C16.9669 21.8499 16.0169 21.3499 15.6669 21.0999C15.3169 20.8499 14.5669 20.0999 14.9502 18.4499L15.3502 16.7333L14.0169 15.4999C13.2835 14.7666 13.0169 13.8833 13.2669 13.0833C13.5169 12.2833 14.2502 11.7166 15.2835 11.5499L17.0669 11.2499L17.9169 9.38326C18.4002 8.43326 19.1502 7.8999 20.0002 7.8999C20.8502 7.8999 21.6169 8.44994 22.0835 9.39994L23.0669 11.3666L24.7169 11.5666C25.7335 11.7333 26.4669 12.2999 26.7335 13.0999C26.9835 13.8999 26.7169 14.7832 25.9835 15.5166L24.6002 16.8999L25.0335 18.4499C25.4169 20.0999 24.6669 20.8499 24.3169 21.0999C24.1335 21.2499 23.7335 21.4833 23.1502 21.4833ZM16.0169 13.9833L17.1669 15.1332C17.7002 15.6666 17.9669 16.5666 17.8002 17.2999L17.4835 18.6332L18.8169 17.8499C19.5335 17.4332 20.5002 17.4332 21.2002 17.8499L22.5335 18.6332L22.2335 17.2999C22.0669 16.5499 22.3169 15.6666 22.8502 15.1332L24.0002 13.9833L22.5502 13.7332C21.8502 13.6166 21.1502 13.0999 20.8335 12.4666L20.0002 10.8333L19.1669 12.4999C18.8669 13.1166 18.1669 13.6499 17.4669 13.7666L16.0169 13.9833Z" fill="#0F0204"/>
</svg>
