<svg width="80" height="80" viewBox="0 0 80 80" fill="none" xmlns="http://www.w3.org/2000/svg">
<path opacity="0.4" d="M53.9669 6.6665H26.0669C13.9336 6.6665 6.7002 13.8998 6.7002 26.0332V53.9332C6.7002 66.0665 13.9336 73.2998 26.0669 73.2998H53.9669C66.1002 73.2998 73.3335 66.0665 73.3335 53.9332V26.0332C73.3335 13.8998 66.1002 6.6665 53.9669 6.6665Z" fill="#2094FA"/>
<path fill-rule="evenodd" clip-rule="evenodd" d="M38.2322 19.9324C39.2085 18.9561 40.7915 18.9561 41.7678 19.9324L51.7678 29.9324C52.7441 30.9087 52.7441 32.4917 51.7678 33.468C50.7915 34.4443 49.2085 34.4443 48.2322 33.468L40 25.2357L31.7678 33.468C30.7915 34.4443 29.2085 34.4443 28.2322 33.468C27.2559 32.4917 27.2559 30.9087 28.2322 29.9324L38.2322 19.9324Z" fill="#2094FA"/>
<path fill-rule="evenodd" clip-rule="evenodd" d="M40 19.2002C41.3807 19.2002 42.5 20.3195 42.5 21.7002V48.3669C42.5 49.7476 41.3807 50.8669 40 50.8669C38.6193 50.8669 37.5 49.7476 37.5 48.3669V21.7002C37.5 20.3195 38.6193 19.2002 40 19.2002Z" fill="#2094FA"/>
<path fill-rule="evenodd" clip-rule="evenodd" d="M17.6286 54.241C18.0662 52.9315 19.4826 52.2247 20.7921 52.6623C33.2445 56.8238 46.7549 56.8238 59.2073 52.6623C60.5168 52.2247 61.9332 52.9315 62.3708 54.241C62.8084 55.5505 62.1016 56.9669 60.7921 57.4045C47.3111 61.9097 32.6883 61.9097 19.2073 57.4045C17.8978 56.9669 17.191 55.5505 17.6286 54.241Z" fill="#2094FA"/>
</svg>
