<svg width="40" height="40" viewBox="0 0 40 40" fill="none" xmlns="http://www.w3.org/2000/svg">
<path d="M19.9999 27.9167C19.3333 27.9167 18.6666 27.8667 18.0333 27.75C14.4999 27.2333 11.2833 25.2 9.24992 22.1833C7.83325 20.05 7.08325 17.5667 7.08325 15C7.08325 7.88333 12.8833 2.08333 19.9999 2.08333C27.1166 2.08333 32.9166 7.88333 32.9166 15C32.9166 17.5667 32.1666 20.05 30.7499 22.1833C28.6999 25.2167 25.4833 27.2333 21.9166 27.7667C21.3333 27.8667 20.6666 27.9167 19.9999 27.9167ZM19.9999 4.58333C14.2499 4.58333 9.58325 9.24999 9.58325 15C9.58325 17.0833 10.1833 19.0833 11.3166 20.7833C12.9666 23.2167 15.5499 24.85 18.4166 25.2667C19.4833 25.45 20.5333 25.45 21.5166 25.2667C24.4333 24.85 27.0166 23.2 28.6666 20.7666C29.7999 19.0666 30.3999 17.0666 30.3999 14.9833C30.4166 9.24998 25.7499 4.58333 19.9999 4.58333Z" fill="#D32D44"/>
<path d="M10.7829 37.6499C10.5496 37.6499 10.3329 37.6166 10.0996 37.5666C9.01628 37.3166 8.18295 36.4833 7.93295 35.3999L7.34961 32.9499C7.31628 32.7999 7.19961 32.6833 7.03295 32.6333L4.28295 31.9833C3.24961 31.7333 2.43295 30.9666 2.14961 29.95C1.86628 28.9333 2.14961 27.8333 2.89961 27.0833L9.39961 20.5833C9.66628 20.3166 10.0329 20.1833 10.3996 20.2166C10.7663 20.25 11.0996 20.4499 11.3163 20.7666C12.9663 23.1999 15.5496 24.85 18.4329 25.2666C19.4996 25.45 20.5496 25.45 21.5329 25.2666C24.4496 24.85 27.0329 23.1999 28.6829 20.7666C28.8829 20.4499 29.2329 20.25 29.5996 20.2166C29.9663 20.1833 30.3329 20.3166 30.5996 20.5833L37.0996 27.0833C37.8496 27.8333 38.1329 28.9333 37.8496 29.95C37.5663 30.9666 36.7329 31.75 35.7163 31.9833L32.9663 32.6333C32.8163 32.6666 32.6996 32.7833 32.6496 32.9499L32.0663 35.3999C31.8163 36.4833 30.9829 37.3166 29.8996 37.5666C28.8163 37.8333 27.6996 37.4499 26.9996 36.5999L19.9996 28.55L12.9996 36.6166C12.4329 37.2833 11.6329 37.6499 10.7829 37.6499ZM10.1496 23.3833L4.66628 28.8666C4.51628 29.0166 4.53295 29.1833 4.56628 29.2833C4.58295 29.3666 4.66628 29.5333 4.86628 29.5666L7.61628 30.2166C8.69961 30.4666 9.53295 31.2999 9.78295 32.3833L10.3663 34.8333C10.4163 35.0499 10.5829 35.1166 10.6829 35.1499C10.7829 35.1666 10.9496 35.1833 11.0996 35.0166L17.4829 27.6666C14.6496 27.1166 12.0496 25.6 10.1496 23.3833ZM22.5163 27.6499L28.8996 34.9833C29.0496 35.1666 29.2329 35.1666 29.3329 35.1333C29.4329 35.1166 29.5829 35.0333 29.6496 34.8166L30.2329 32.3666C30.4829 31.2833 31.3163 30.4499 32.3996 30.1999L35.1496 29.55C35.3496 29.5 35.4329 29.3499 35.4496 29.2666C35.4829 29.1833 35.4996 28.9999 35.3496 28.8499L29.8663 23.3666C27.9496 25.5833 25.3663 27.0999 22.5163 27.6499Z" fill="#D32D44"/>
<path d="M23.1503 21.4834C22.717 21.4834 22.2003 21.3667 21.5837 21L20.0003 20.05L18.417 20.9833C16.967 21.85 16.017 21.35 15.667 21.1C15.317 20.85 14.567 20.1 14.9503 18.45L15.3503 16.7333L14.017 15.5C13.2837 14.7666 13.017 13.8833 13.267 13.0833C13.517 12.2833 14.2503 11.7166 15.2837 11.55L17.067 11.25L17.917 9.38334C18.4003 8.43334 19.1503 7.89998 20.0003 7.89998C20.8503 7.89998 21.617 8.45002 22.0837 9.40002L23.067 11.3667L24.717 11.5667C25.7337 11.7333 26.467 12.3 26.7337 13.1C26.9837 13.9 26.717 14.7833 25.9837 15.5167L24.6003 16.9L25.0337 18.45C25.417 20.1 24.667 20.85 24.317 21.1C24.1337 21.25 23.7337 21.4834 23.1503 21.4834ZM16.017 13.9834L17.167 15.1333C17.7003 15.6666 17.967 16.5667 17.8003 17.3L17.4836 18.6333L18.817 17.85C19.5336 17.4333 20.5003 17.4333 21.2003 17.85L22.5337 18.6333L22.2337 17.3C22.067 16.55 22.317 15.6666 22.8503 15.1333L24.0003 13.9834L22.5503 13.7333C21.8503 13.6166 21.1503 13.1 20.8337 12.4667L20.0003 10.8333L19.167 12.5C18.867 13.1167 18.167 13.65 17.467 13.7667L16.017 13.9834Z" fill="#D32D44"/>
</svg>
