<svg width="76" height="76" viewBox="0 0 76 76" fill="none" xmlns="http://www.w3.org/2000/svg">
<rect width="75.3229" height="75.32" rx="37.66" fill="#D32D44" fill-opacity="0.1"/>
<path d="M38.0007 21.3335C33.634 21.3335 30.084 24.8835 30.084 29.2502C30.084 33.5335 33.434 37.0002 37.8007 37.1502C37.934 37.1335 38.0673 37.1335 38.1673 37.1502C38.2007 37.1502 38.2173 37.1502 38.2507 37.1502C38.2673 37.1502 38.2673 37.1502 38.284 37.1502C42.5507 37.0002 45.9007 33.5335 45.9173 29.2502C45.9173 24.8835 42.3673 21.3335 38.0007 21.3335Z" fill="#D32D44"/>
<path d="M46.4676 41.5833C41.8176 38.4833 34.2342 38.4833 29.5509 41.5833C27.4342 43 26.2676 44.9166 26.2676 46.9666C26.2676 49.0166 27.4342 50.9166 29.5342 52.3166C31.8676 53.8833 34.9342 54.6666 38.0009 54.6666C41.0676 54.6666 44.1342 53.8833 46.4676 52.3166C48.5676 50.9 49.7342 49 49.7342 46.9333C49.7176 44.8833 48.5676 42.9833 46.4676 41.5833Z" fill="#D32D44"/>
</svg>
