<svg width="18" height="19" viewBox="0 0 18 19" fill="none" xmlns="http://www.w3.org/2000/svg">
<path d="M13.5002 6.33858C13.4777 6.33858 13.4627 6.33858 13.4402 6.33858H13.4027C11.9852 6.29358 10.9277 5.19858 10.9277 3.84858C10.9277 2.46858 12.0527 1.35107 13.4252 1.35107C14.7977 1.35107 15.9227 2.47608 15.9227 3.84858C15.9152 5.20608 14.8577 6.30108 13.5077 6.34608C13.5077 6.33858 13.5077 6.33858 13.5002 6.33858ZM13.4252 2.46858C12.6677 2.46858 12.0527 3.08358 12.0527 3.84108C12.0527 4.58358 12.6302 5.18358 13.3727 5.21358C13.3802 5.20608 13.4402 5.20608 13.5077 5.21358C14.2352 5.17608 14.7977 4.57608 14.8052 3.84108C14.8052 3.08358 14.1902 2.46858 13.4252 2.46858Z" fill="#815259"/>
<path d="M13.5084 11.8662C13.2159 11.8662 12.9234 11.8437 12.6309 11.7912C12.3234 11.7387 12.1209 11.4462 12.1734 11.1387C12.2259 10.8312 12.5184 10.6287 12.8259 10.6812C13.7484 10.8387 14.7234 10.6662 15.3759 10.2312C15.7284 9.99875 15.9159 9.70624 15.9159 9.41374C15.9159 9.12124 15.7209 8.83624 15.3759 8.60374C14.7234 8.16874 13.7334 7.99624 12.8034 8.16124C12.4959 8.22124 12.2034 8.01124 12.1509 7.70374C12.0984 7.39624 12.3009 7.10374 12.6084 7.05124C13.8309 6.83374 15.0984 7.06623 15.9984 7.66623C16.6584 8.10873 17.0409 8.73874 17.0409 9.41374C17.0409 10.0812 16.6659 10.7187 15.9984 11.1687C15.3159 11.6187 14.4309 11.8662 13.5084 11.8662Z" fill="#815259"/>
<path d="M4.47688 6.33875C4.46938 6.33875 4.46188 6.33875 4.46188 6.33875C3.11188 6.29375 2.05437 5.19875 2.04688 3.84875C2.04688 2.46875 3.17188 1.34375 4.54438 1.34375C5.91688 1.34375 7.04187 2.46875 7.04187 3.84125C7.04187 5.19875 5.98438 6.29375 4.63438 6.33875L4.47688 5.77625L4.52938 6.33875C4.51438 6.33875 4.49188 6.33875 4.47688 6.33875ZM4.55188 5.21375C4.59688 5.21375 4.63438 5.21375 4.67938 5.22125C5.34688 5.19125 5.93188 4.59125 5.93188 3.84875C5.93188 3.09125 5.31688 2.47625 4.55938 2.47625C3.80188 2.47625 3.18688 3.09125 3.18688 3.84875C3.18688 4.58375 3.75688 5.17625 4.48438 5.22125C4.49187 5.21375 4.52188 5.21375 4.55188 5.21375Z" fill="#815259"/>
<path d="M4.47 11.8662C3.5475 11.8662 2.6625 11.6187 1.98 11.1687C1.32 10.7262 0.9375 10.0887 0.9375 9.41374C0.9375 8.74624 1.32 8.10873 1.98 7.66623C2.88 7.06623 4.1475 6.83374 5.37 7.05124C5.6775 7.10374 5.88 7.39624 5.8275 7.70374C5.775 8.01124 5.4825 8.22124 5.175 8.16124C4.245 7.99624 3.2625 8.16874 2.6025 8.60374C2.25 8.83624 2.0625 9.12124 2.0625 9.41374C2.0625 9.70624 2.2575 9.99875 2.6025 10.2312C3.255 10.6662 4.23 10.8387 5.1525 10.6812C5.46 10.6287 5.7525 10.8387 5.805 11.1387C5.8575 11.4462 5.655 11.7387 5.3475 11.7912C5.055 11.8437 4.7625 11.8662 4.47 11.8662Z" fill="#815259"/>
<path d="M9.00023 11.9411C8.97773 11.9411 8.96273 11.9411 8.94023 11.9411H8.90273C7.48523 11.8961 6.42773 10.8011 6.42773 9.45111C6.42773 8.07111 7.55274 6.95361 8.92524 6.95361C10.2977 6.95361 11.4227 8.07861 11.4227 9.45111C11.4152 10.8086 10.3577 11.9036 9.00773 11.9486C9.00773 11.9411 9.00773 11.9411 9.00023 11.9411ZM8.92524 8.07112C8.16774 8.07112 7.55273 8.68612 7.55273 9.44362C7.55273 10.1861 8.13024 10.7861 8.87274 10.8161C8.88024 10.8086 8.94023 10.8086 9.00773 10.8161C9.73523 10.7786 10.2977 10.1786 10.3052 9.44362C10.3052 8.69362 9.69024 8.07112 8.92524 8.07112Z" fill="#815259"/>
<path d="M8.99899 17.4763C8.09899 17.4763 7.19898 17.2438 6.50148 16.7713C5.84148 16.3288 5.45898 15.6988 5.45898 15.0238C5.45898 14.3563 5.83398 13.7113 6.50148 13.2688C7.90398 12.3388 10.1015 12.3388 11.4965 13.2688C12.1565 13.7113 12.539 14.3413 12.539 15.0163C12.539 15.6838 12.164 16.3288 11.4965 16.7713C10.799 17.2363 9.89899 17.4763 8.99899 17.4763ZM7.12399 14.2138C6.77149 14.4463 6.58398 14.7388 6.58398 15.0313C6.58398 15.3238 6.77899 15.6088 7.12399 15.8413C8.13649 16.5238 9.85399 16.5238 10.8665 15.8413C11.219 15.6088 11.4065 15.3163 11.4065 15.0238C11.4065 14.7313 11.2115 14.4463 10.8665 14.2138C9.86149 13.5313 8.14399 13.5388 7.12399 14.2138Z" fill="#815259"/>
</svg>
