<svg width="76" height="76" viewBox="0 0 76 76" fill="none" xmlns="http://www.w3.org/2000/svg">
<rect width="75.3229" height="75.32" rx="37.66" fill="#D32D44" fill-opacity="0.1"/>
<path d="M38.0007 21.334C28.8173 21.334 21.334 28.8173 21.334 38.0007C21.334 47.184 28.8173 54.6673 38.0007 54.6673C47.184 54.6673 54.6673 47.184 54.6673 38.0007C54.6673 28.8173 47.184 21.334 38.0007 21.334ZM45.9673 34.1673L36.5173 43.6173C36.284 43.8507 35.9673 43.984 35.634 43.984C35.3007 43.984 34.984 43.8507 34.7507 43.6173L30.034 38.9007C29.5507 38.4173 29.5507 37.6173 30.034 37.134C30.5173 36.6507 31.3173 36.6507 31.8007 37.134L35.634 40.9673L44.2007 32.4007C44.684 31.9173 45.484 31.9173 45.9673 32.4007C46.4507 32.884 46.4507 33.6673 45.9673 34.1673Z" fill="#D32D44"/>
</svg>
