<svg width="40" height="40" viewBox="0 0 40 40" fill="none" xmlns="http://www.w3.org/2000/svg">
<path d="M26.35 33.6334C25.9167 33.6334 25.4667 33.6168 24.9833 33.5668C24.1167 33.5001 23.1333 33.3334 22.1167 33.0834L19.3167 32.4168C11.6333 30.6001 9.11666 26.5334 10.9167 18.8668L12.55 11.8834C12.9167 10.3001 13.35 9.01677 13.8833 7.95011C16.75 2.03344 22.2333 2.56677 26.1333 3.48344L28.9167 4.13344C32.8167 5.05011 35.2833 6.50011 36.6667 8.71677C38.0333 10.9334 38.25 13.7834 37.3333 17.6834L35.7 24.6501C34.2667 30.7501 31.2833 33.6334 26.35 33.6334ZM21.8667 5.41677C19.0833 5.41677 17.3167 6.56677 16.1333 9.03344C15.7 9.93344 15.3167 11.0501 14.9833 12.4501L13.35 19.4334C11.8667 25.7334 13.5833 28.4834 19.8833 29.9834L22.6833 30.6501C23.5833 30.8668 24.4333 31.0001 25.2 31.0668C29.7333 31.5168 31.9833 29.5334 33.25 24.0834L34.8833 17.1168C35.6333 13.9001 35.5333 11.6501 34.5333 10.0334C33.5333 8.41677 31.5667 7.31677 28.3333 6.56677L25.55 5.91677C24.1667 5.58344 22.9333 5.41677 21.8667 5.41677Z" fill="#0F0204"/>
<path d="M13.8833 37.0833C9.6 37.0833 6.86667 34.5166 5.11667 29.1L2.98334 22.5166C0.616671 15.1833 2.73334 11.05 10.0333 8.6833L12.6667 7.83329C13.5333 7.56663 14.1833 7.38329 14.7667 7.28329C15.25 7.1833 15.7167 7.36663 16 7.74996C16.2833 8.1333 16.3333 8.6333 16.1333 9.06663C15.7 9.94996 15.3167 11.0666 15 12.4666L13.3667 19.45C11.8833 25.75 13.6 28.5 19.9 30L22.7 30.6666C23.6 30.8833 24.45 31.0166 25.2167 31.0833C25.75 31.1333 26.1833 31.5 26.3333 32.0166C26.4667 32.5333 26.2667 33.0666 25.8333 33.3666C24.7333 34.1166 23.35 34.75 21.6 35.3166L18.9667 36.1833C17.05 36.7833 15.3833 37.0833 13.8833 37.0833ZM12.9667 10.3666L10.8167 11.0666C4.86667 12.9833 3.45 15.7833 5.36667 21.75L7.5 28.3333C9.43334 34.2833 12.2333 35.7166 18.1833 33.8L20.8167 32.9333C20.9167 32.9 21 32.8666 21.1 32.8333L19.3333 32.4166C11.65 30.6 9.13334 26.5333 10.9333 18.8666L12.5667 11.8833C12.6833 11.35 12.8167 10.8333 12.9667 10.3666Z" fill="#0F0204"/>
<path d="M29.15 17.5168C29.05 17.5168 28.95 17.5001 28.8334 17.4834L20.75 15.4335C20.0834 15.2668 19.6834 14.5835 19.85 13.9168C20.0167 13.2501 20.7 12.8501 21.3667 13.0168L29.45 15.0668C30.1167 15.2334 30.5167 15.9168 30.35 16.5834C30.2167 17.1334 29.7 17.5168 29.15 17.5168Z" fill="#0F0204"/>
<path d="M24.2667 23.1501C24.1667 23.1501 24.0667 23.1334 23.95 23.1167L19.1 21.8834C18.4333 21.7167 18.0333 21.0334 18.2 20.3667C18.3667 19.7001 19.05 19.3001 19.7167 19.4667L24.5667 20.7001C25.2333 20.8667 25.6333 21.5501 25.4667 22.2167C25.3333 22.7834 24.8333 23.1501 24.2667 23.1501Z" fill="#0F0204"/>
</svg>
