<svg width="18" height="18" viewBox="0 0 18 18" fill="none" xmlns="http://www.w3.org/2000/svg">
<path d="M11.25 17.0625H6.75C2.6775 17.0625 0.9375 15.3225 0.9375 11.25V6.75C0.9375 2.6775 2.6775 0.9375 6.75 0.9375H11.25C15.3225 0.9375 17.0625 2.6775 17.0625 6.75V11.25C17.0625 15.3225 15.3225 17.0625 11.25 17.0625ZM6.75 2.0625C3.2925 2.0625 2.0625 3.2925 2.0625 6.75V11.25C2.0625 14.7075 3.2925 15.9375 6.75 15.9375H11.25C14.7075 15.9375 15.9375 14.7075 15.9375 11.25V6.75C15.9375 3.2925 14.7075 2.0625 11.25 2.0625H6.75Z" fill="#815259"/>
<path d="M16.1106 5.89502H1.89062C1.58312 5.89502 1.32812 5.64002 1.32812 5.33252C1.32812 5.02502 1.57563 4.77002 1.89062 4.77002H16.1106C16.4181 4.77002 16.6731 5.02502 16.6731 5.33252C16.6731 5.64002 16.4256 5.89502 16.1106 5.89502Z" fill="#815259"/>
<path d="M6.39063 5.79002C6.08313 5.79002 5.82812 5.53502 5.82812 5.22752V1.58252C5.82812 1.27502 6.08313 1.02002 6.39063 1.02002C6.69813 1.02002 6.95313 1.27502 6.95313 1.58252V5.22752C6.95313 5.53502 6.69813 5.79002 6.39063 5.79002Z" fill="#815259"/>
<path d="M11.6094 5.45252C11.3019 5.45252 11.0469 5.19752 11.0469 4.89002V1.58252C11.0469 1.27502 11.3019 1.02002 11.6094 1.02002C11.9169 1.02002 12.1719 1.27502 12.1719 1.58252V4.89002C12.1719 5.20502 11.9244 5.45252 11.6094 5.45252Z" fill="#815259"/>
<path d="M8.3175 13.5899C8.0475 13.5899 7.7925 13.5224 7.56 13.3949C7.05 13.0949 6.75 12.4949 6.75 11.7374V9.93745C6.75 9.17994 7.05 8.57244 7.5675 8.27244C8.085 7.97244 8.76 8.01744 9.4125 8.39994L10.9725 9.29994C11.625 9.67494 12.0075 10.2374 12.0075 10.8374C12.0075 11.4374 11.625 11.9999 10.965 12.3749L9.405 13.2749C9.045 13.4849 8.67 13.5899 8.3175 13.5899ZM8.325 9.20245C8.25 9.20245 8.1825 9.21745 8.13 9.24744C7.9725 9.33745 7.875 9.59245 7.875 9.93745V11.7374C7.875 12.0749 7.9725 12.3299 8.13 12.4274C8.2875 12.5174 8.5575 12.4724 8.85 12.2999L10.41 11.3999C10.7025 11.2274 10.8825 11.0174 10.8825 10.8374C10.8825 10.6574 10.71 10.4474 10.41 10.2749L8.85 9.37495C8.655 9.26245 8.4675 9.20245 8.325 9.20245Z" fill="#815259"/>
</svg>
