<svg width="48" height="48" viewBox="0 0 48 48" fill="none" xmlns="http://www.w3.org/2000/svg">
<path d="M18 20C20.2091 20 22 18.2091 22 16C22 13.7909 20.2091 12 18 12C15.7909 12 14 13.7909 14 16C14 18.2091 15.7909 20 18 20Z" stroke="#D32D44" stroke-width="1.5" stroke-linecap="round" stroke-linejoin="round"/>
<path d="M26 4H18C8 4 4 8 4 18V30C4 40 8 44 18 44H30C40 44 44 40 44 30V20" stroke="#D32D44" stroke-width="1.5" stroke-linecap="round" stroke-linejoin="round"/>
<path d="M31.5 10H42.5" stroke="#D32D44" stroke-width="1.5" stroke-linecap="round"/>
<path d="M37 15.5V4.5" stroke="#D32D44" stroke-width="1.5" stroke-linecap="round"/>
<path d="M5.33984 37.8991L15.1998 31.2791C16.7798 30.2191 19.0598 30.3391 20.4798 31.5591L21.1398 32.1391C22.6998 33.4791 25.2198 33.4791 26.7798 32.1391L35.0998 24.9991C36.6598 23.6591 39.1798 23.6591 40.7398 24.9991L43.9998 27.7991" stroke="#D32D44" stroke-width="1.5" stroke-linecap="round" stroke-linejoin="round"/>
</svg>
