<svg width="18" height="18" viewBox="0 0 18 18" fill="none" xmlns="http://www.w3.org/2000/svg">
<path d="M11.25 17.0625H6.75C2.6775 17.0625 0.9375 15.3225 0.9375 11.25V6.75C0.9375 2.6775 2.6775 0.9375 6.75 0.9375H11.25C15.3225 0.9375 17.0625 2.6775 17.0625 6.75V11.25C17.0625 15.3225 15.3225 17.0625 11.25 17.0625ZM6.75 2.0625C3.2925 2.0625 2.0625 3.2925 2.0625 6.75V11.25C2.0625 14.7075 3.2925 15.9375 6.75 15.9375H11.25C14.7075 15.9375 15.9375 14.7075 15.9375 11.25V6.75C15.9375 3.2925 14.7075 2.0625 11.25 2.0625H6.75Z" fill="#815259"/>
<path d="M16.11 5.895H1.89001C1.58251 5.895 1.32751 5.64 1.32751 5.3325C1.32751 5.025 1.57501 4.77 1.89001 4.77H16.11C16.4175 4.77 16.6725 5.025 16.6725 5.3325C16.6725 5.64 16.425 5.895 16.11 5.895Z" fill="#815259"/>
<path d="M6.39002 5.79C6.08252 5.79 5.82751 5.535 5.82751 5.2275V1.5825C5.82751 1.275 6.08252 1.02 6.39002 1.02C6.69752 1.02 6.95252 1.275 6.95252 1.5825V5.2275C6.95252 5.535 6.69752 5.79 6.39002 5.79Z" fill="#815259"/>
<path d="M11.61 5.4525C11.3025 5.4525 11.0475 5.1975 11.0475 4.89V1.5825C11.0475 1.275 11.3025 1.02 11.61 1.02C11.9175 1.02 12.1725 1.275 12.1725 1.5825V4.89C12.1725 5.205 11.925 5.4525 11.61 5.4525Z" fill="#815259"/>
<path d="M8.3175 13.59C8.0475 13.59 7.7925 13.5225 7.56 13.395C7.05 13.095 6.75 12.495 6.75 11.7375V9.93751C6.75 9.18001 7.05 8.57251 7.5675 8.27251C8.085 7.97251 8.76 8.01751 9.4125 8.40001L10.9725 9.30001C11.625 9.67501 12.0075 10.2375 12.0075 10.8375C12.0075 11.4375 11.625 12 10.965 12.375L9.405 13.275C9.045 13.485 8.67 13.59 8.3175 13.59ZM8.325 9.20251C8.25 9.20251 8.1825 9.21751 8.13 9.24751C7.9725 9.33751 7.875 9.59251 7.875 9.93751V11.7375C7.875 12.075 7.9725 12.33 8.13 12.4275C8.2875 12.5175 8.5575 12.4725 8.85 12.3L10.41 11.4C10.7025 11.2275 10.8825 11.0175 10.8825 10.8375C10.8825 10.6575 10.71 10.4475 10.41 10.275L8.85 9.37501C8.655 9.26251 8.4675 9.20251 8.325 9.20251Z" fill="#815259"/>
</svg>
