<svg width="18" height="18" viewBox="0 0 18 18" fill="none" xmlns="http://www.w3.org/2000/svg">
<path d="M8.1075 12.713C7.965 12.713 7.8225 12.6605 7.71 12.548L6.585 11.423C6.3675 11.2055 6.3675 10.8455 6.585 10.628C6.8025 10.4105 7.1625 10.4105 7.38 10.628L8.1075 11.3555L10.71 8.75297C10.9275 8.53547 11.2875 8.53547 11.505 8.75297C11.7225 8.97047 11.7225 9.33047 11.505 9.54797L8.505 12.548C8.4 12.6605 8.25 12.713 8.1075 12.713Z" fill="#815259"/>
<path d="M10.5 5.0625H7.5C6.78 5.0625 5.4375 5.0625 5.4375 3C5.4375 0.9375 6.78 0.9375 7.5 0.9375H10.5C11.22 0.9375 12.5625 0.9375 12.5625 3C12.5625 3.72 12.5625 5.0625 10.5 5.0625ZM7.5 2.0625C6.7575 2.0625 6.5625 2.0625 6.5625 3C6.5625 3.9375 6.7575 3.9375 7.5 3.9375H10.5C11.4375 3.9375 11.4375 3.7425 11.4375 3C11.4375 2.0625 11.2425 2.0625 10.5 2.0625H7.5Z" fill="#815259"/>
<path d="M11.25 17.0628H6.75C2.535 17.0628 1.6875 15.1278 1.6875 12.0003V7.50032C1.6875 4.08032 2.925 2.61782 5.97 2.46032C6.2775 2.44532 6.5475 2.67782 6.5625 2.99282C6.5775 3.30782 6.3375 3.56282 6.03 3.57782C3.9 3.69782 2.8125 4.33532 2.8125 7.50032V12.0003C2.8125 14.7753 3.36 15.9378 6.75 15.9378H11.25C14.64 15.9378 15.1875 14.7753 15.1875 12.0003V7.50032C15.1875 4.33532 14.1 3.69782 11.97 3.57782C11.6625 3.56282 11.4225 3.29282 11.4375 2.98532C11.4525 2.67782 11.715 2.43782 12.03 2.45282C15.075 2.61782 16.3125 4.08031 16.3125 7.49282V11.9928C16.3125 15.1278 15.465 17.0628 11.25 17.0628Z" fill="#815259"/>
</svg>
