<svg width="18" height="18" viewBox="0 0 18 18" fill="none" xmlns="http://www.w3.org/2000/svg">
<path d="M11.8575 15.135C11.6625 15.135 11.46 15.1275 11.2425 15.105C10.8525 15.075 10.41 15 9.95249 14.8875L8.69249 14.5875C5.23499 13.77 4.10249 11.94 4.91249 8.49L5.64749 5.3475C5.81249 4.635 6.00749 4.0575 6.24749 3.5775C7.53749 0.915004 10.005 1.155 11.76 1.5675L13.0125 1.86C14.7675 2.2725 15.8775 2.925 16.5 3.9225C17.115 4.92 17.2125 6.2025 16.8 7.9575L16.065 11.0925C15.42 13.8375 14.0775 15.135 11.8575 15.135ZM9.83999 2.4375C8.58749 2.4375 7.79249 2.955 7.25999 4.065C7.06499 4.47 6.89249 4.9725 6.74249 5.6025L6.00749 8.745C5.33999 11.58 6.11249 12.8175 8.94749 13.4925L10.2075 13.7925C10.6125 13.89 10.995 13.95 11.34 13.98C13.38 14.1825 14.3925 13.29 14.9625 10.8375L15.6975 7.7025C16.035 6.255 15.99 5.2425 15.54 4.515C15.09 3.7875 14.205 3.2925 12.75 2.955L11.4975 2.6625C10.875 2.5125 10.32 2.4375 9.83999 2.4375Z" fill="#815259"/>
<path d="M6.24748 16.6875C4.31998 16.6875 3.08998 15.5325 2.30248 13.095L1.34248 10.1325C0.277478 6.8325 1.22998 4.9725 4.51498 3.9075L5.69998 3.525C6.08998 3.405 6.38248 3.3225 6.64498 3.2775C6.86248 3.2325 7.07248 3.315 7.19998 3.4875C7.32748 3.66 7.34998 3.885 7.25998 4.08C7.06498 4.4775 6.89248 4.98 6.74998 5.61L6.01498 8.7525C5.34748 11.5875 6.11998 12.825 8.95498 13.5L10.215 13.8C10.62 13.8975 11.0025 13.9575 11.3475 13.9875C11.5875 14.01 11.7825 14.175 11.85 14.4075C11.91 14.64 11.82 14.88 11.625 15.015C11.13 15.3525 10.5075 15.6375 9.71998 15.8925L8.53498 16.2825C7.67248 16.5525 6.92248 16.6875 6.24748 16.6875ZM5.83498 4.665L4.86748 4.98C2.18998 5.8425 1.55248 7.1025 2.41498 9.7875L3.37498 12.75C4.24498 15.4275 5.50498 16.0725 8.18248 15.21L9.36748 14.82C9.41248 14.805 9.44998 14.79 9.49498 14.775L8.69998 14.5875C5.24248 13.77 4.10998 11.94 4.91998 8.49L5.65498 5.3475C5.70748 5.1075 5.76748 4.875 5.83498 4.665Z" fill="#815259"/>
<path d="M13.1175 7.8825C13.0725 7.8825 13.0275 7.875 12.975 7.8675L9.33753 6.945C9.03753 6.87 8.85753 6.5625 8.93253 6.2625C9.00753 5.9625 9.31503 5.7825 9.61503 5.8575L13.2525 6.78C13.5525 6.855 13.7325 7.1625 13.6575 7.4625C13.5975 7.71 13.365 7.8825 13.1175 7.8825Z" fill="#815259"/>
<path d="M10.92 10.4175C10.875 10.4175 10.83 10.41 10.7775 10.4025L8.59497 9.8475C8.29497 9.7725 8.11497 9.465 8.18997 9.165C8.26497 8.865 8.57247 8.685 8.87247 8.76L11.055 9.315C11.355 9.39 11.535 9.6975 11.46 9.9975C11.4 10.2525 11.175 10.4175 10.92 10.4175Z" fill="#815259"/>
</svg>
