<svg width="18" height="18" viewBox="0 0 18 18" fill="none" xmlns="http://www.w3.org/2000/svg">
<path d="M8.1075 12.7125C7.965 12.7125 7.8225 12.66 7.71 12.5475L6.585 11.4225C6.3675 11.205 6.3675 10.845 6.585 10.6275C6.8025 10.41 7.1625 10.41 7.38 10.6275L8.1075 11.355L10.71 8.7525C10.9275 8.535 11.2875 8.535 11.505 8.7525C11.7225 8.97 11.7225 9.33 11.505 9.5475L8.505 12.5475C8.4 12.66 8.25 12.7125 8.1075 12.7125Z" fill="#815259"/>
<path d="M10.5 5.0625H7.5C6.78 5.0625 5.4375 5.0625 5.4375 3C5.4375 0.9375 6.78 0.9375 7.5 0.9375H10.5C11.22 0.9375 12.5625 0.9375 12.5625 3C12.5625 3.72 12.5625 5.0625 10.5 5.0625ZM7.5 2.0625C6.7575 2.0625 6.5625 2.0625 6.5625 3C6.5625 3.9375 6.7575 3.9375 7.5 3.9375H10.5C11.4375 3.9375 11.4375 3.7425 11.4375 3C11.4375 2.0625 11.2425 2.0625 10.5 2.0625H7.5Z" fill="#815259"/>
<path d="M11.25 17.0625H6.75C2.535 17.0625 1.6875 15.1275 1.6875 12V7.49999C1.6875 4.07999 2.925 2.61749 5.97 2.45999C6.2775 2.44499 6.5475 2.67749 6.5625 2.99249C6.5775 3.30749 6.3375 3.56249 6.03 3.57749C3.9 3.69749 2.8125 4.33499 2.8125 7.49999V12C2.8125 14.775 3.36 15.9375 6.75 15.9375H11.25C14.64 15.9375 15.1875 14.775 15.1875 12V7.49999C15.1875 4.33499 14.1 3.69749 11.97 3.57749C11.6625 3.56249 11.4225 3.29249 11.4375 2.98499C11.4525 2.67749 11.715 2.43749 12.03 2.45249C15.075 2.61749 16.3125 4.07999 16.3125 7.49249V11.9925C16.3125 15.1275 15.465 17.0625 11.25 17.0625Z" fill="#815259"/>
</svg>
